<?xml version="1.0" encoding="UTF-8"?>
<svg xmlns="http://www.w3.org/2000/svg" viewBox="0 0 64 64" role="img" aria-labelledby="title" color="#F0A34A">
  <title id="title">No engine running</title>
  <style>.s{fill:none;stroke:currentColor;stroke-width:4;stroke-linecap:round;stroke-linejoin:round}.f{fill:currentColor}.a{fill:#E2603B}.muted{fill:none;stroke:currentColor;stroke-width:3;stroke-linecap:round;stroke-linejoin:round}</style>
  
  <g class="s"><rect x="9" y="19" width="31" height="26" rx="5"/><path d="M20 45v5M31 45v5M15 50h20"/><path d="M16 29h17M47 21c8 3 10 10 6 16-3 5-9 5-12 2 6 0 7-5 4-8-3-3-6-2-8 0 1-6 4-9 10-10z"/></g><path class="a" d="M49 16l2 5 5 2-5 2-2 5-2-5-5-2 5-2z"/>
</svg>
